<?xml version="1.0" standalone="no"?><!DOCTYPE svg PUBLIC "-//W3C//DTD SVG 1.1//EN" "http://www.w3.org/Graphics/SVG/1.1/DTD/svg11.dtd"><svg t="1741751837065" class="icon" viewBox="0 0 1024 1024" version="1.1" xmlns="http://www.w3.org/2000/svg" p-id="3348" xmlns:xlink="http://www.w3.org/1999/xlink" width="200" height="200"><path d="M1019.562313 1024.009255H4.447345V2.230513h1015.114968v1021.778742zM511.754937 66.748807C261.298827 66.498915 58.460939 268.550108 57.581691 520.264931c-0.851482 246.809544 197.608677 448.101808 442.548662 454.006653 251.872162 6.071439 465.122198-195.081996 464.853796-454.025163-0.259147-257.416052-209.686768-453.54389-453.229212-453.497614z" fill="#FFFFFF" p-id="3349"></path><path d="M511.754937 66.748807c243.542444-0.046276 452.970065 196.090817 453.238467 453.497614 0.268402 258.943167-212.981634 460.096602-464.853796 454.025163-244.949241-5.904845-443.4094-207.197108-442.557917-454.006653 0.879248-251.714823 203.717137-453.766016 454.173246-453.516124z m437.578598 454.571222c0.092552-240.330875-196.349964-438.892842-434.589154-439.244541C271.192681 81.723789 73.306347 277.823861 72.926882 519.792914 72.565928 755.264787 261.965205 958.565437 510.996007 958.704266c250.030369 0.129573 438.605929-204.327983 438.337528-437.384237z" fill="#B92518" p-id="3350"></path><path d="M949.333535 521.320029c0.268402 233.056255-188.307158 437.504555-438.337528 437.384237C261.965205 958.565437 72.565928 755.264787 72.926882 519.792914 73.306347 277.823861 271.192681 81.723789 514.744381 82.075488c238.23919 0.351699 434.681706 198.913666 434.589154 439.244541zM577.77258 774.839624c-4.044541-11.365437 2.397108-15.863485 21.564714-15.104555-6.895155-5.895589-16.881562-5.821547-25.266811 0.185105-8.505568 6.080694-12.152133 18.112509-8.348228 27.562111 3.415184 8.514823 12.068836 12.985105 23.091829 9.495878 5.016341-1.591902 10.541721-6.969197 12.21692-11.86522 1.240202-3.628055-2.073174-11.134056-5.636443-13.55893-5.886334-3.998265-13.327549-3.998265-18.010701 3.683586l0.38872-0.397975zM506.266579 450.554447c0-30.292408 0.138829-59.42791-0.277658-88.563413-0.027766-2.165727-3.748373-4.701663-6.219522-6.358351-9.699494-6.487925-14.086479-17.409111-10.810123-27.849024 2.924657-9.329284 12.744469-16.770499 22.480983-17.011136 10.11598-0.259147 20.463341 7.219089 23.582357 17.057412 3.294866 10.421403-1.027332 21.083442-10.902675 27.821258-2.461894 1.675199-6.071439 4.257411-6.10846 6.469414-0.407231 29.116992-0.268402 58.243239-0.268402 88.43384 13.716269 0 26.210846-0.046276 38.705423 0.009255 14.243818 0.064787 18.51974 4.090817 19.167607 18.288359 2.045409 44.323355 4.00752 88.655965 6.006652 132.97932 1.304989 28.811569 1.175416 57.780477 4.349964 86.397686 3.692842 33.392914 3.119017 26.488503 32.587708 26.53478 0.314678 0 0.629356-0.277657 1.499349-0.703399l-4.553579-13.272017c10.736081 21.018655 28.737527 13.253507 46.868546 14.225307-16.474331-20.25047-23.684165-41.491251-25.340853-64.379465-3.331887-45.711641-5.766016-91.50658-8.783225-137.255242-1.92509-29.126247-3.415184-58.317281-6.700795-87.3047-2.008388-17.677513-11.060014-23.860014-28.709762-23.924801-3.702097-0.009255-7.45047-0.351699-11.097035 0.064787-7.755893 0.897758-11.541287-1.490094-11.606074-10.088214-0.092552-12.179899-1.203181-24.369053-2.128705-36.530441-2.461894-32.356327-7.524512-38.659147-38.464787-48.423428-0.916269-0.286913-1.684454-1.036587-4.507303-2.850614 10.060448-0.509038 18.056978-0.333189 25.868402-1.462329 9.634707-1.397542 13.734779-8.126103 14.808387-16.446565-9.838322 0.694143-18.899205 2.036153-27.923065 1.777006-9.699494-0.277657-16.428055 2.424873-19.806219 12.124368-0.786696 2.258279-4.035286 5.54389-5.506869 5.238467-2.498915-0.518294-5.54389-3.091251-6.49718-5.534635-3.489226-8.885033-9.505134-12.096602-18.92697-11.837455-9.37556 0.259147-18.797397-1.055098-28.719017-1.721475 3.665076 23.813738 24.905857 14.086479 38.797976 18.380911-0.58308 1.008821-0.684888 1.480839-0.925525 1.554881-2.091685 0.721909-4.174114 1.53637-6.330585 2.017643-19.537816 4.424006-31.393782 15.622849-32.596963 36.456399-0.638612 11.06927-1.527115 22.120029-2.25828 33.180043-1.582646 23.860014-1.573391 23.860014-25.414895 24.082141-14.90094 0.148084-22.555025 5.691974-26.5718 20.000578a77.873608 77.873608 0 0 0-2.767318 16.363268c-3.896457 65.702965-7.367173 131.433695-11.541287 197.108894-1.721475 27.164136-6.534201 53.68966-24.304266 75.892986-0.546059 0.684888-0.333189 1.980622-0.527549 3.341143 16.400289-0.138829 34.235141 5.858568 44.610268-13.651483l-4.76645 13.244252c32.633984 1.12914 30.496023 4.821981 33.300362-20.953868 3.951988-36.326826 4.5906-73.023861 6.349096-109.572813 1.841793-38.409255 3.294866-76.846276 5.007086-115.264787 0.629356-14.151265 4.877513-18.056978 19.315691-18.112509 12.189154-0.009255 24.406074 0.027766 38.557339 0.027766z m-2.397108 220.274765v-12.744469c0-56.956761 0.037021-113.932032-0.064787-170.898047a120.873463 120.873463 0 0 0-1.443818-17.612726c-1.434563-9.616197-7.829935-13.679248-17.066666-14.067969-14.243818-0.601591-21.888648 8.320463-22.369921 26.74765-0.555315 21.064931-0.795951 42.148373-1.14765 63.213305-0.657122 39.168185-2.360087 78.364136-1.601157 117.504555 0.610846 31.458568 20.768764 50.209689 51.172235 51.37585 28.367317 1.082863 48.080983-15.770933 53.060303-45.804194a113.561822 113.561822 0 0 0 1.51786-20.953868c-1.045842-46.183659-2.230513-92.358062-3.646565-138.541721-0.416486-13.595951-0.546059-27.377007-2.970933-40.686045-1.952856-10.671294-11.254375-13.818077-21.564715-12.725958-10.097469 1.064353-14.937961 7.191323-15.613593 16.946348a213.916414 213.916414 0 0 0-0.499783 14.410413c-0.027766 56.595806-0.009255 113.191612-0.027766 169.796673 0.009255 15.743167-0.009255 15.743167-17.733044 14.040203zM373.509384 772.00752c-165.030224-94.310918-192.231381-303.377585-81.77932-434.515112 106.833261-126.85235 298.351988-138.365871 415.819523-24.591179 60.279393 58.372813 91.969342 129.739986 89.507447 213.490673C793.882486 634.252495 741.840259 714.902675 650.093043 771.341142l5.312509 9.912365c110.526103-58.983659 180.93073-194.045409 145.242516-334.040203C764.580389 305.719161 633.822327 212.324512 487.941199 222.625597 345.669616 232.67679 228.979522 345.960954 214.143368 490.759219c-14.836153 144.724223 75.522777 253.204917 154.627332 290.420246l4.738684-9.171945zM165.831004 363.194215l-14.179031 10.458424c4.349964 4.405495 7.996529 10.282574 13.244251 12.818511 6.432393 3.109761 14.188286 4.211135 21.453652 4.618366 3.535503 0.19436 7.265365-3.165293 13.086912-5.960376-28.348807-14.104989-35.253218-44.415907-15.974548-67.535503l9.449603 18.991757-13.521909 5.830803c2.952422 2.156471 6.515691 3.83167 8.699927 6.589732 2.193492 2.776573 3.081996 6.617498 4.433261 10.032683 1.277223 3.193059 2.424873 6.441649 3.628055 9.653217l3.378164-1.267968c0.601591-3.989009 1.425307-7.940998 1.749241-11.948518 0.657122-8.237166 2.989443-13.882863 12.142877-17.418365 5.071873-1.962111 8.866522-10.153001 10.921186-16.307737 3.6188-10.87491 5.451338-22.342155 8.477802-35.466088-7.552278-9.486623-29.80188-10.254808-42.351988 2.221258-21.083442 20.963124-31.810268 45.804194-24.637455 74.689804z m38.659147 361.093276l-25.118728 12.02256 14.262328 22.749385c2.508171-12.004049 35.743745-33.328127 47.960666-31.773247l-13.549675-21.583224L208.358842 721.908894l-10.634273-16.946349 24.008098-9.486623-12.651916-19.86175c-14.836153 13.327549-29.97773 24.100651-49.015763 29.774114l12.272451 19.611859c7.394939-5.73825 14.382646-11.161822 22.027477-17.112943l10.125235 16.400289z m539.321475 45.433984c12.161388-0.907014 41.407954 23.156616 45.054519 35.956616l16.529862-19.722921-20.472595-12.698192 1.508604-3.211569c7.496746 1.508604 15.345192 5.127404 22.379176 3.914967 6.543456-1.12914 12.198409-7.385683 20.000578-12.531598l-32.994938-5.210701c0.869993-0.925524 1.739986-1.841793 2.591468-2.767318-3.785394-5.941866-6.247289-14.290094-11.661606-17.251771-8.570354-4.692408-15.974548 1.888069-21.777585 8.607375-6.719306 7.783659-13.336804 15.687636-21.157483 24.915112z m-16.076356 85.083442l38.538829-31.264208-7.496747-13.512654c1.101374 11.078525-1.897325 21.305568-12.355748 23.138106-4.803471 0.842227-11.393203-8.59812-17.17773-13.36457l1.851049-3.387419h13.642227c-5.52538-6.784093-9.856833-12.115112-14.234563-17.473897l-0.694143 14.697324-3.165293 0.666378-13.40159-15.85423c6.784093-8.505568 13.734779-14.14201 25.165003-9.245987l-8.61663-10.11598-38.20564 30.903254c13.086913 1.795517 37.530007 32.347072 36.150976 44.813883zM393.722833 839.45047l-10.199277 27.87679-3.044974-0.518294c-2.11945-8.061316-5.266233-16.002314-6.117716-24.193203-1.554881-15.058279-11.985539-19.001012-24.396818-22.582791 3.692842 11.143312-12.448301 46.109617-23.49906 51.570209l12.337238 5.210702c-1.045842-16.150398 8.829501-26.997542 15.002747-41.148807 8.098337 20.139407 8.329718 40.510195 18.575272 58.965148 13.262762-16.751988 14.484454-38.01128 30.468257-51.061171L393.722833 839.45047z m136.135358 35.688214l2.66551-1.203181c7.265365 6.636009 14.132755 13.781056 21.916413 19.741431 7.607809 5.830803 12.189154 16.566884 24.017354 16.974114 2.174982-19.898771-9.653218-38.168619-2.026898-57.669414-4.127838 0.712654-8.375994 1.453073-9.903109 1.73073l6.006652 28.543167-2.804338 1.156906c-5.664208-5.108894-12.207664-9.532899-16.80752-15.474765-9.023861-11.643095-19.815474-11.883731-30.940275-7.718872 6.747072 18.019957 9.292263 36.400868 8.01504 56.096023l7.524512-0.879248-7.663341-41.296891z m298.60188-140.716703l11.707881 6.626754c2.646999-3.924223 4.849747-7.330152 7.219089-10.606508 2.147216-2.980188 4.859002-5.608677 6.691541-8.77397 5.479103-9.449602 4.424006-20.657701-2.508171-26.37744-8.533333-7.043239-17.048156-5.210701-25.276067 0.768185-3.591034 2.591468-6.784093 6.015907-10.736081 7.737383-3.165293 1.369776-7.200578 0.740419-10.865654 0.990311 0.259147-4.044541-1.064353-9.819812 1.082863-11.781924 4.997831-4.57209 11.680116-7.311641 17.594216-10.745336l-9.449602-5.312509c-4.238901 5.266233-8.366739 9.986406-12.031815 15.039769-6.312075 8.727693-6.191757 20.278236-0.064787 26.507013 6.515691 6.617498 14.762111 6.404628 24.979899-0.666377 3.942733-2.730296 7.524512-6.358351 11.874475-7.968764 3.526247-1.314244 7.931743-0.222126 11.957773-0.203615-0.249892 4.137093 1.110629 10.236298-1.064352 12.050325-6.256544 5.15517-13.956905 8.57961-21.111208 12.716703zM116.417266 508.668113c-1.008821 8.718438-2.406363 16.24295-2.637744 23.785972-0.277657 9.606941 3.23008 17.631236 13.364569 20.454086 10.180766 2.832104 18.084743-1.619667 23.082574-12.309473 2.026898-4.349964 3.23008-9.208966 5.904845-13.068402 1.767751-2.554447 5.497614-3.757628 8.348228-5.571655 1.92509 3.563268 6.173247 7.903977 5.303254 10.550976-2.156471 6.524946-6.663774 12.272451-9.875343 17.742299h11.346927c0.657122-8.746204 1.962111-16.992625 1.693709-25.183514-0.277657-8.487057-4.914534-14.715835-13.790311-16.372523-8.77397-1.638178-15.039769 1.952856-18.778886 10.088214-2.619234 5.691974-4.905278 11.65235-8.375995 16.789009-1.739986 2.582213-6.895155 5.747505-8.524078 4.886768-2.943167-1.564136-6.793348-6.69154-6.062183-8.996096 2.563702-8.116847 6.922921-15.67838 10.291829-22.814172-2.063919 0.01851-6.802603 0.01851-11.291395 0.018511z m154.155314 249.428778l-17.908894-19.093565c-2.739552 4.627621-4.433261 8.98684-7.394938 12.152133-5.784526 6.201012-12.503832 11.513521-18.399422 17.612726-8.542589 8.838756-8.838756 16.844541-1.628922 26.738395 10.87491 14.90094 22.406941 16.22444 36.113955 4.044541 4.96081-4.414751 9.449602-9.412581 14.715835-13.420101 3.970499-3.017209 8.829501-4.886768 13.688503-7.496747l-9.245987-9.856833c-1.443818 10.347361-24.424584 34.966305-33.744613 35.160666-4.340709 0.092552-10.264064-2.795083-12.651916-6.275055-1.823283-2.656255-0.703398-9.634707 1.71222-12.466811 6.441649-7.524512 14.030947-14.160521 21.703543-20.500361 3.544758-2.896891 8.329718-4.275922 13.040636-6.598988z m552.204772-421.594794c-6.959942 5.108894-6.49718 8.274187 1.295734 14.095734 8.810991 6.589732 17.603471 13.318294 25.6 20.861316 4.386985 4.137093 7.089516 10.060448 11.578308 16.705712l-11.217353-0.657122 7.145047 12.614895c15.456255-6.376862 4.433261-15.956038 3.646565-21.675777l25.507448-3.757629-0.416486-2.628488 7.487491 4.063051 15.104555-11.8282c-12.078091-0.286913-22.52726 1.221692-32.930152 3.03572-4.803471 0.832972-9.449602 2.915401-14.243818 3.174548-2.795083 0.148084-5.710484-2.184237-10.69906-4.303688l21.240781-6.719306-10.060448-7.598554c5.775271-4.294432 16.335503-2.313811 14.845409-13.697758-6.904411 3.239335-13.114678 6.654519-19.685901 9.088648-6.376862 2.369342-13.401591 3.535503-6.673029 14.669559a483.91034 483.91034 0 0 1-3.63731-0.37021l-23.887781-25.072451zM617.857034 221.681562c17.483153-11.115546 35.401302-16.428055 46.572379-32.671005 2.721041-3.951988 9.097903-6.423138 14.216052-7.422705 6.47867-1.258713 13.38308-0.305423 20.750253-0.305422-3.729863-14.234563-15.419234-4.294432-22.684599-10.273319 3.785394-4.285177 8.487057-8.070571 10.939697-12.97585 1.480839-2.970933-0.555315-7.691106-0.990311-11.615329-2.480405 2.10094-5.192191 3.989009-7.330152 6.395372-1.119884 1.267968-1.064353 3.507737-1.841793 5.164426-7.108026 15.243384-12.698192 17.038901-27.68243 9.55141-2.239769-1.119884-7.08026-1.601157-7.64483-0.610846-1.434563 2.47115-2.545192 7.533767-1.221692 8.764714 4.553579 4.192625 10.217787 7.182068 17.686768 12.105857-9.884599 6.515691-20.296746 18.936226-30.283152 18.612292-13.827332-0.462762-10.13449 5.192191-10.48619 15.280405zM453.844887 855.897035c-0.56457 12.522343-0.731164 24.295011-1.71222 36.002893-1.304989 15.613594 4.868257 23.276934 20.990889 24.933622 14.974982 1.545625 22.758641-4.794215 24.683731-19.852494 1.564136-12.253941 3.331887-24.489371 5.025597-36.84512h-7.913232c2.730296 16.094866 2.026898 31.912075-4.081562 46.942589-1.240202 3.063485-7.940998 5.590166-11.920752 5.331019-3.276356-0.212871-8.96833-5.007086-8.912798-7.66334 0.333189-15.715401-1.749241-31.986117 6.71005-46.581634l-22.869703-2.267535zM270.026521 835.100506c5.247722-4.488792 9.144179-10.467679 13.142444-10.541721 4.063051-0.083297 10.800868 5.118149 11.643094 9.023861 0.869993 4.02603-3.961244 9.273753-6.69154 14.780622l18.704845 13.503399c1.823283-22.268113 12.60564-41.796674 12.716703-65.980622l-56.16081 34.383225c2.822849 2.063919 5.775271 4.20188 6.645264 4.831236zM199.640404 662.841938c-0.823717-6.052928-1.554881-11.245119-2.221258-16.43731-1.758496-13.781056-11.754158-24.304266-24.850326-26.109039-12.670427-1.739986-27.747216 6.469414-32.893131 17.93666-5.118149 11.402458-1.804772 26.395951 8.052061 34.170354 2.915401 2.2953 6.793348 3.368908 10.236298 5.016341-0.999566-3.183803-2.915401-4.192625-4.664642-5.442082-12.661171-9.033116-12.41128-20.528127 1.573391-27.451049 7.718872-3.81316 16.668691-6.043673 25.257556-6.793347 3.989009-0.342444 10.532466 3.665076 12.105857 7.348662 1.804772 4.211135-0.259147 10.301085-1.369776 15.428489-0.416486 1.915835-2.869125 3.387419-6.367607 7.228344l15.141577-4.896023z m649.875343-106.03731c18.334635-7.376428 32.772813-27.950832 56.734635-14.10499v-25.6c-22.268113 11.050759-38.057556-3.461461-56.021981-13.669992l-0.971801 11.022993 1.952856-2.87838 23.989588 9.727259-0.185105 2.896891-25.498192 11.513522v21.092697z m51.986696 34.697903c-19.324946 3.665076-35.382791-5.664208-56.521765-8.394505l14.067969-15.002748c-4.525813-0.481273-10.671294 0.536804-11.411714 3.100507-4.229646 14.743601-7.172813 29.848156-10.68055 45.396963l10.328851 2.89689-5.081128-16.511352 3.230079-2.674765c16.04859 7.228344 35.262473 3.803905 50.144903 16.927838 1.980622-8.662907 3.961244-17.214751 5.923355-25.738828zM633.914879 838.876645l51.977441 42.240925-4.877513-67.257845-10.773102 5.793782c8.01504 4.238901 11.45799 19.676645 7.422704 34.050036l-25.525958-24.526392-18.223572 9.699494zM884.630136 651.939262c-11.689371 3.933478-47.849602-9.606941-53.995083-19.630368-3.452205 9.079393-6.737816 17.686768-9.16269 24.091395 20.148662 2.221258 37.233839 9.801302 53.763702 20.093131 2.702531-7.098771 5.71974-14.974982 9.394071-24.554158z m-704.064787-54.476355l-5.247722-29.02444c-7.413449 9.107158-43.860593 16.326247-55.753579 11.420969 0.740419 4.738684 1.332755 9.023861 2.091685 13.290528 0.814461 4.609111 1.786262 9.190456 2.850614 14.614027 7.25611-9.680983 44.619523-16.779754 56.059002-10.301084z m454.913666 300.082718c-9.680983-17.483153-15.437744-35.32726-15.446999-55.4389l-24.794794 7.27462c9.116414 8.126103 19.519306 43.879103 15.64136 54.966883 9.033116-2.508171 17.418366-4.821981 24.600433-6.802603zM483.720809 776.246421c-6.238033 4.488792-12.864787 8.2094-7.024729 16.289226 4.923789 6.830369 25.137238 7.265365 31.949096 1.064353 6.423138-5.858568 5.192191-11.208098-2.239769-18.14953l0.981056-16.983369c-8.79248 0.101808-18.751121-2.378597-26.072017 0.962545-8.588865 3.914967-1.767751 11.143312 2.406363 16.816775z m60.973535 3.989009l2.286045 2.230514c-3.276356 3.600289-5.941866 8.59812-10.014172 10.393637-4.368474 1.943601-10.069704 0.869993-16.603904 1.175415 12.152133 5.877079 23.138106 4.183369 30.329428-3.729862 6.932176-7.62632 8.079826-21.388865 2.387853-28.728272-4.96081-6.395372-17.094432-8.255676-25.424151-4.063051-8.107592 4.063051-9.74577 11.022993-7.357917 18.677078 2.47115 7.903977 9.449602 8.477802 16.400289 7.25611 2.776573-0.499783 5.340275-2.110195 7.996529-3.211569zM413.195863 224.217498l4.488792-1.841793c-1.073608-3.350398-1.777007-6.876645-3.285611-10.023427-12.290962-25.590745-30.098048-49.11757-28.644974-79.780188 0.120318-2.47115-3.776139-6.275054-6.617499-7.404194-2.397108-0.944035-5.988142 1.101374-9.051626 1.823283 0.684888 2.896891 0.990311 5.960376 2.13796 8.662906 1.71222 4.02603 4.294432 7.681851 6.015908 11.698626 8.838756 20.666956 17.381345 41.47274 26.349675 62.084165 2.258279 5.201446 5.701229 9.866088 8.607375 14.780622z m386.498915 149.074187l-3.044974-0.684888c-0.58308 4.738684-3.07274 10.550976-1.184671 13.873608 1.656688 2.896891 8.200145 3.165293 12.670426 4.238901 1.71222 0.416486 3.665076-0.046276 5.488359-0.277657 4.747939-0.601591 9.634707-2.11945 11.217353 5.034851 0.259147 1.212437 3.914967 1.675199 5.997397 2.489661 0.77744-2.323066 2.332321-4.692408 2.156472-6.941432-0.231381-3.24859-1.73073-6.395372-2.119451-7.681851 5.54389-2.480405 12.744469-5.053362 12.568619-5.71974-1.684454-6.506435-5.007086-12.226175-14.586262-13.234996l4.266667 11.050759c-15.206363 5.016341-14.937961-11.45799-23.878525-15.770933-8.03355 12.735213 10.023427 14.465944 9.403326 23.350976-11.272885 8.292697-15.733912 5.997397-18.954736-9.727259zM357.553347 241.820969l4.183369-0.888503c-0.222126-4.442516 0.333189-9.097903-0.805206-13.299783-3.081996-11.356182-6.830369-22.54577-10.430658-33.753869-2.230513-6.950687-4.20188-14.058713-7.311641-20.611424-0.999566-2.11945-5.247722-2.693275-8.01504-3.961244 0.037021 3.24859-0.832972 6.8859 0.333189 9.662473 1.786262 4.285177 6.099205 7.672596 7.357917 12.013304 4.063051 14.067968 7.126537 28.422849 10.819378 42.60188 0.749675 2.896891 2.554447 5.506869 3.868692 8.237166z m79.206363 518.69154c11.032249 7.024729 10.439913 29.440926 0.425741 36.178742h23.332465c-11.643095-12.105857-1.665944-27.636153-6.913666-41.296891l-16.84454 5.118149zM665.83621 206.021692l-5.275488 2.628489c2.350832 8.588865 4.00752 17.473897 7.45047 25.590745 1.045842 2.47115 7.043239 2.832104 10.773102 4.155603 1.221692-3.840926 4.627621-8.96833 3.2671-11.291395-4.470282-7.580043-10.671294-14.132755-16.215184-21.083442z m-290.364715-0.064787c3.729863-10.347361-2.915401-36.262039-9.477368-40.537961-2.045409-1.332755-5.469848-1.332755-7.996529-0.768185-1.064353 0.231381-2.609978 4.100072-1.980622 5.312509 5.93261 11.550542 12.290962 22.888214 19.454519 35.993637z" fill="#FFFFFF" p-id="3351"></path><path d="M506.266579 450.554447c-14.151265 0-26.368185-0.037021-38.566595 0.009255-14.438178 0.055531-18.686334 3.961244-19.31569 18.112509-1.71222 38.41851-3.156038 76.846276-5.007086 115.264787-1.749241 36.548952-2.387852 73.245987-6.349096 109.572813-2.804338 25.766594-0.666377 22.083008-33.300362 20.953868l4.76645-13.244252c-10.375127 19.500795-28.209978 13.512654-44.610268 13.651483 0.19436-1.360521-0.01851-2.656255 0.527549-3.341143 17.770065-22.203326 22.582791-48.738106 24.304266-75.892986 4.164859-65.684454 7.635575-131.415184 11.541287-197.108894a79.086045 79.086045 0 0 1 2.767318-16.363268c4.02603-14.308604 11.67086-19.852495 26.5718-20.000579 23.841504-0.222126 23.832249-0.222126 25.414895-24.08214 0.740419-11.060014 1.619667-22.120029 2.258279-33.180043 1.212437-20.842805 13.059147-32.041649 32.596963-36.456399 2.147216-0.481273 4.238901-1.295734 6.330586-2.017643 0.240636-0.083297 0.342444-0.546059 0.925524-1.554881-13.892119-4.285177-35.142155 5.432827-38.797975-18.380911 9.92162 0.657122 19.343456 1.980622 28.719017 1.721475 9.431092-0.259147 15.437744 2.952422 18.92697 11.837455 0.962545 2.443384 4.00752 5.016341 6.49718 5.534635 1.471584 0.305423 4.720174-2.980188 5.506869-5.238467 3.368908-9.699494 10.106725-12.402025 19.806218-12.124368 9.023861 0.259147 18.084743-1.082863 27.923066-1.777006-1.064353 8.311208-5.17368 15.049024-14.808387 16.446565-7.811424 1.138395-15.807954 0.95329-25.868402 1.462329 2.832104 1.814027 3.600289 2.563702 4.507303 2.850614 30.940275 9.764281 36.012148 16.067101 38.464786 48.423428 0.934779 12.161388 2.045409 24.350542 2.128706 36.530441 0.064787 8.607375 3.850181 10.985973 11.606074 10.088214 3.655821-0.416486 7.394939-0.083297 11.097035-0.064787 17.640492 0.074042 26.701374 6.256544 28.709762 23.924801 3.276356 28.978163 4.775705 58.178453 6.700795 87.3047 3.017209 45.748662 5.451338 91.534346 8.783225 137.255242 1.665944 22.888214 8.866522 44.13825 25.340853 64.379465-18.13102-0.9718-36.132466 6.793348-46.868547-14.225307l4.55358 13.272017c-0.869993 0.425741-1.184671 0.703398-1.49935 0.703399-29.468691-0.046276-28.885611 6.858134-32.587708-26.53478-3.174548-28.617209-3.044975-57.586117-4.349963-86.397686-2.008388-44.323355-3.970499-88.655965-6.006653-132.97932-0.647867-14.188286-4.923789-18.214317-19.167606-18.288359-12.494577-0.055531-24.979899-0.009255-38.705423-0.009255 0-30.1906-0.138829-59.316847 0.268402-88.43384 0.037021-2.212003 3.655821-4.794215 6.10846-6.469414 9.866088-6.737816 14.197542-17.399855 10.902675-27.821258-3.119017-9.838322-13.466377-17.316558-23.582357-17.057412-9.736515 0.249892-19.556327 7.681851-22.480984 17.011136-3.276356 10.439913 1.110629 21.361099 10.810123 27.849024 2.480405 1.656688 6.191757 4.183369 6.219523 6.358351 0.425741 29.098482 0.286913 58.233984 0.286913 88.526392z" fill="#B92518" p-id="3352"></path><path d="M503.869471 670.829212c17.723789 1.702965 17.742299 1.702965 17.742299-14.040203 0.01851-56.595806 0-113.191612 0.027766-169.796673 0.009255-4.803471 0.166594-9.616197 0.499783-14.410413 0.666377-9.755025 5.516124-15.881996 15.613594-16.946348 10.31034-1.092119 19.611858 2.054664 21.564714 12.725958 2.434129 13.299783 2.554447 27.090094 2.970933 40.686045 1.406797 46.174403 2.591468 92.358062 3.646565 138.541721a113.561822 113.561822 0 0 1-1.517859 20.953868c-4.97932 30.033261-24.692986 46.887057-53.060304 45.804194-30.403471-1.166161-50.552133-19.908026-51.172234-51.37585-0.75893-39.140419 0.944035-78.33637 1.601156-117.504555 0.351699-21.064931 0.592336-42.148373 1.147651-63.213305 0.481273-18.417932 8.126103-27.349241 22.36992-26.74765 9.236732 0.38872 15.632104 4.451772 17.066667 14.067969 0.869993 5.812292 1.425307 11.735647 1.443817 17.612726 0.101808 56.966016 0.064787 113.941287 0.064787 170.898047l-0.009255 12.744469z" fill="#B92518" p-id="3353"></path><path d="M373.509384 772.00752l-4.747939 9.171945c-79.104555-37.215329-169.45423-145.696023-154.627332-290.420246C228.979522 345.960954 345.669616 232.67679 487.941199 222.625597c145.881128-10.301085 276.63919 83.093565 312.716124 224.587707 35.678959 139.994794-34.716414 275.056544-145.242516 334.040203l-5.312509-9.912365c91.747216-56.438467 143.789443-137.088648 146.963991-244.94924 2.461894-83.750687-29.228055-155.11786-89.507447-213.490673C590.091307 199.135792 398.563325 210.649313 291.730064 337.492408c-110.442805 131.137527-83.241649 340.204194 81.77932 434.515112zM165.831004 363.194215c-7.172813-28.885611 3.544758-53.726681 24.637455-74.680549 12.550108-12.476067 34.799711-11.707881 42.351988-2.221258-3.026464 13.114678-4.859002 24.581923-8.477802 35.466088-2.045409 6.154736-5.849313 14.345625-10.921186 16.307737-9.144179 3.544758-11.4765 9.1812-12.142877 17.418366-0.323933 4.00752-1.14765 7.959508-1.749241 11.948517l-3.378164 1.267969c-1.203181-3.220824-2.350832-6.460159-3.628055-9.653218-1.360521-3.415184-2.239769-7.25611-4.433261-10.032683-2.184237-2.758062-5.747505-4.433261-8.699927-6.589732l13.521909-5.830803-9.449603-18.991757c-19.27867 23.12885-12.374259 53.430513 15.974548 67.535503-5.821547 2.795083-9.55141 6.163991-13.086912 5.960376-7.265365-0.407231-15.021258-1.508604-21.453652-4.618366-5.247722-2.535936-8.894288-8.42227-13.244251-12.818511l14.179031-10.467679z m49.395228-75.698626c-18.195806 4.072307-24.887346 14.771367-31.449314 28.311786 20.000578-3.405929 10.865654 12.355748 14.567752 19.463775 23.443529-9.634707 11.569053-29.764859 16.881562-47.775561zM204.490151 724.287491l-10.143746-16.391034-22.027476 17.112943-12.272452-19.611858c19.047289-5.664208 34.17961-16.43731 49.015763-29.774115l12.651916 19.86175-24.008098 9.486623c4.02603 6.395372 6.830369 10.89342 10.634273 16.946349 6.8859-5.664208 12.911063-10.615763 19.685901-16.205929l13.549674 21.583225c-12.207664-1.554881-45.443239 19.769197-47.960665 31.773246l-14.262328-22.749385 25.137238-12.031815zM743.811626 769.721475c7.82068-9.227477 14.438178-17.131453 21.166739-24.924367 5.803037-6.719306 13.207231-13.299783 21.777585-8.607376 5.414317 2.961678 7.876211 11.319161 11.661605 17.251772l-2.591468 2.767317 32.994938 5.210702c-7.802169 5.15517-13.457122 11.402458-20.000578 12.531598-7.033984 1.212437-14.88243-2.406363-22.379176-3.914968l-1.508604 3.211569 20.472596 12.698193-16.529863 19.722921c-3.655821-12.790745-32.902386-36.854375-45.063774-35.947361z m18.195806-16.492842l18.612292 15.234129c6.47867-7.367173 2.980188-12.013304-1.647433-16.205929-4.859002-4.405495-10.051193-6.173247-16.964859 0.9718zM727.73527 854.804917c1.379031-12.476067-23.054808-43.018366-36.150976-44.813883l38.20564-30.903254 8.61663 10.11598c-11.420969-4.896023-18.371656 0.740419-25.165003 9.245987l13.40159 15.85423 3.165293-0.666378 0.694143-14.697324c4.37773 5.358785 8.709183 10.68055 14.234563 17.473897h-13.642227l-1.851049 3.387419c5.784526 4.775705 12.383514 14.206797 17.17773 13.36457 10.458424-1.832538 13.457122-12.059581 12.355748-23.138106l7.496747 13.512654-38.538829 31.264208zM393.722833 839.45047l9.125669 4.109328c-15.983803 13.040636-17.205495 34.309183-30.468257 51.061171-10.245553-18.454953-10.476934-38.825741-18.575272-58.965148-6.173247 14.151265-16.04859 24.998409-15.002747 41.148807l-12.337238-5.210702c11.050759-5.460593 27.191902-40.426898 23.49906-51.570209 12.41128 3.591034 22.841938 7.524512 24.396818 22.582791 0.842227 8.190889 3.998265 16.131887 6.117716 24.193203l3.044974 0.518293L393.722833 839.45047zM529.858191 875.138684l7.672596 41.287636-7.524512 0.879248c1.277223-19.695155-1.277223-38.066811-8.01504-56.096024 11.124801-4.164859 21.916414-3.924223 30.940275 7.718872 4.599855 5.941866 11.143312 10.365871 16.80752 15.474765l2.804338-1.156905-6.006652-28.543167 9.903109-1.73073c-7.62632 19.500795 4.20188 37.770644 2.026898 57.669414-11.818944-0.407231-16.400289-11.143312-24.017353-16.974114-7.783659-5.960376-14.651048-13.105423-21.916414-19.741432l-2.674765 1.212437zM828.460071 734.421981c7.145047-4.127838 14.845409-7.552278 21.101952-12.735213 2.174982-1.804772 0.814461-7.903977 1.064353-12.050325-4.02603-0.01851-8.431526-1.101374-11.957773 0.203615-4.349964 1.619667-7.931743 5.238467-11.874476 7.968763-10.217787 7.08026-18.464208 7.283876-24.979898 0.666378-6.12697-6.228778-6.247289-17.77932 0.064786-26.507014 3.665076-5.053362 7.792914-9.773536 12.031815-15.039769l9.449603 5.31251c-5.923355 3.433695-12.596385 6.173247-17.594216 10.745336-2.147216 1.971367-0.823717 7.746638-1.082863 11.781923 3.665076-0.249892 7.700362 0.379465 10.865654-0.990311 3.951988-1.721475 7.145047-5.145915 10.736081-7.737382 8.237166-5.978886 16.751988-7.811424 25.276067-0.768185 6.932176 5.710484 7.987274 16.927838 2.50817 26.37744-1.823283 3.165293-4.535069 5.793782-6.69154 8.77397-2.369342 3.276356-4.57209 6.69154-7.219089 10.606507l-11.698626-6.608243zM116.417266 508.668113h11.28214c-3.368908 7.135792-7.718872 14.697325-10.29183 22.814172-0.731164 2.304555 3.119017 7.43196 6.062184 8.996095 1.628923 0.860738 6.784093-2.304555 8.524078-4.886768 3.470716-5.145915 5.756761-11.097035 8.375994-16.789009 3.748373-8.135358 10.014172-11.726392 18.778887-10.088214 8.866522 1.647433 13.503398 7.876211 13.790311 16.372524 0.268402 8.190889-1.036587 16.428055-1.693709 25.183514h-11.346927c3.211569-5.469848 7.718872-11.217354 9.875343-17.7423 0.869993-2.646999-3.378163-6.987708-5.303254-10.550976-2.850615 1.804772-6.580477 3.007954-8.348228 5.571656-2.674765 3.859436-3.868691 8.718438-5.904845 13.068402-4.997831 10.689805-12.901808 15.141576-23.082574 12.309472-10.143745-2.822849-13.651482-10.847144-13.36457-20.454085 0.240636-7.561533 1.638178-15.086045 2.647-23.804483zM270.57258 758.096891c-4.710918 2.323066-9.495879 3.692842-13.022126 6.608243-7.672596 6.339841-15.261894 12.97585-21.703543 20.500361-2.415618 2.832104-3.535503 9.810557-1.71222 12.466812 2.387852 3.479971 8.311208 6.367607 12.651917 6.275054 9.320029-0.19436 32.300795-24.813304 33.744613-35.160665l9.245987 9.856833c-4.868257 2.600723-9.718004 4.470282-13.688504 7.496746-5.266233 4.016775-9.755025 9.014606-14.715835 13.420101-13.707014 12.179899-25.239046 10.865654-36.113955-4.044541-7.209834-9.884599-6.922921-17.899638 1.628923-26.738395 5.895589-6.099205 12.614895-11.411714 18.399421-17.612726 2.952422-3.174548 4.646132-7.524512 7.394939-12.152133l17.890383 19.08431zM822.777352 336.502097l23.887781 25.072451 3.63731 0.37021c-6.737816-11.143312 0.286913-12.309472 6.673029-14.669559 6.571222-2.434129 12.78149-5.849313 19.685901-9.088648 1.480839 11.393203-9.070137 9.412581-14.845409 13.697758l10.060448 7.598554-21.240781 6.719306c4.988576 2.11945 7.903977 4.451772 10.69906 4.303688 4.794215-0.259147 9.449602-2.341576 14.243818-3.174548 10.402892-1.814027 20.852061-3.322632 32.930152-3.03572l-15.104555 11.8282-7.487491-4.063051 0.416486 2.628488-25.507448 3.757629c0.795951 5.71974 11.809689 15.28966-3.646565 21.675777l-7.145047-12.614895 11.217353 0.657122c-4.488792-6.645264-7.191323-12.568619-11.578308-16.705712-7.987274-7.543022-16.779754-14.271584-25.6-20.861316-7.792914-5.821547-8.255676-8.977585-1.295734-14.095734zM617.857034 221.681562c0.351699-10.088214-3.331887-15.743167 10.476934-15.28966 9.986406 0.323933 20.398554-12.096602 30.283153-18.612292-7.478236-4.923789-13.133189-7.903977-17.686768-12.105857-1.332755-1.230947-0.212871-6.293565 1.221692-8.764715 0.573825-0.990311 5.405061-0.509038 7.64483 0.610846 14.984237 7.487491 20.583659 5.691974 27.68243-9.55141 0.77744-1.656688 0.721909-3.896457 1.841793-5.164425 2.137961-2.406363 4.849747-4.294432 7.330152-6.395372 0.444252 3.933478 2.480405 8.644396 0.990311 11.615329-2.452639 4.905278-7.145047 8.681417-10.939697 12.975849 7.265365 5.978886 18.954736-3.961244 22.684599 10.273319-7.367173 0-14.271584-0.95329-20.750253 0.305423-5.118149 0.990311-11.495011 3.470716-14.216052 7.422705-11.161822 16.252205-29.089226 21.564714-46.563124 32.68026zM453.844887 855.897035l22.869703 2.27679c-8.459291 14.586262-6.367607 30.856978-6.71005 46.572379-0.055531 2.656255 5.636443 7.45047 8.912798 7.66334 3.979754 0.259147 10.68055-2.267534 11.920752-5.331019 6.117715-15.030513 6.821114-30.847722 4.081562-46.942589h7.913232c-1.693709 12.365004-3.461461 24.591179-5.025597 36.84512-1.92509 15.058279-9.708749 21.39812-24.683731 19.852494-16.122632-1.665944-22.295879-9.329284-20.990889-24.933622 0.981056-11.707881 1.14765-23.489805 1.71222-36.002893zM270.026521 835.100506l-6.645264-4.831236 56.16081-34.383225c-0.111063 24.183948-10.884165 43.712509-12.716703 65.980622l-18.704845-13.503399c2.730296-5.506869 7.561533-10.754591 6.69154-14.780622-0.842227-3.905712-7.580043-9.097903-11.643094-9.023861-4.00752 0.083297-7.903977 6.052928-13.142444 10.541721zM199.640404 662.841938l-15.132321 4.896023c3.498482-3.840926 5.951121-5.312509 6.367606-7.228344 1.110629-5.127404 3.174548-11.217354 1.369776-15.428489-1.573391-3.674331-8.116847-7.691106-12.105857-7.348662-8.588865 0.749675-17.538684 2.980188-25.257556 6.793347-13.984671 6.922921-14.234563 18.417932-1.573391 27.451049 1.749241 1.249458 3.665076 2.258279 4.664642 5.442082-3.44295-1.647433-7.320897-2.721041-10.236298-5.016341-9.856833-7.783659-13.17021-22.767896-8.05206-34.170354 5.145915-11.467245 20.222704-19.6859 32.89313-17.93666 13.096168 1.804772 23.091829 12.327983 24.850326 26.109039 0.647867 5.192191 1.388286 10.384382 2.212003 16.43731zM849.515747 556.804628v-21.083442l25.498192-11.513522 0.185105-2.89689-23.989588-9.72726-1.952856 2.87838 0.971801-11.022993c17.95517 10.217787 33.744613 24.720752 56.021981 13.669993v25.6c-23.961822-13.845842-38.4 6.719306-56.734635 14.095734zM901.502443 591.502531l-5.941866 25.729573c-14.88243-13.123933-34.096312-9.699494-50.144902-16.927838l-3.23008 2.674765 5.081128 16.511352-10.32885-2.896891c3.507737-15.558062 6.450904-30.662617 10.680549-45.396963 0.740419-2.563702 6.8859-3.581779 11.411714-3.100506l-14.067968 15.002748c21.157484 2.739552 37.215329 12.068836 56.540275 8.40376zM633.914879 838.876645l18.223572-9.699494 25.525958 24.526392c4.044541-14.373391 0.592336-29.811135-7.422704-34.050036l10.773102-5.793782 4.877513 67.257845-51.977441-42.240925zM884.630136 651.939262l-9.403326 24.544903c-16.520607-10.291829-33.61504-17.871873-53.763702-20.093131l9.16269-24.091396c6.154736 10.032683 42.314967 23.573102 54.004338 19.639624zM180.565349 597.462907c-11.439479-6.469414-48.802892 0.620101-56.068257 10.301084-1.064353-5.423572-2.026898-10.004917-2.850615-14.614027-0.75893-4.266667-1.351265-8.551844-2.091684-13.290528 11.892986 4.896023 48.34013-2.313811 55.753579-11.420969l5.256977 29.02444zM635.479015 897.545625l-24.591178 6.802603c3.877946-11.08778-6.524946-46.850036-15.64136-54.966883l24.794794-7.27462c0 20.102386 5.756761 37.955748 15.437744 55.4389z" fill="#B92518" p-id="3354"></path><path d="M483.720809 776.246421c-4.183369-5.673463-10.995228-12.911063-2.406363-16.816775 7.320897-3.331887 17.279537-0.860738 26.072017-0.962545l-0.981056 16.983369c7.422704 6.941432 8.662907 12.290962 2.239769 18.14953-6.802603 6.201012-27.025307 5.766016-31.949096-1.064353-5.830803-8.079826 0.795951-11.800434 7.024729-16.289226z m10.375126 22.647578l9.514389-10.791613c-3.720607-3.017209-7.08026-6.987708-11.328416-8.579609-1.647433-0.610846-7.987274 5.145915-7.552278 6.330585 1.453073 4.02603 4.96081 7.302386 9.366305 13.040637z m-0.231381-44.156761l-7.422704 8.40376c3.211569 2.609978 6.275054 5.488359 9.829067 7.524512 0.453507 0.259147 5.275488-4.424006 4.840492-5.840058-0.9718-3.193059-3.951988-5.766016-7.246855-10.088214zM544.694344 780.23543c-2.656255 1.101374-5.219957 2.711786-7.987274 3.202314-6.950687 1.221692-13.938395 0.638612-16.400289-7.25611-2.387852-7.64483-0.749675-14.604772 7.357918-18.677079 8.329718-4.183369 20.463341-2.332321 25.42415 4.063052 5.691974 7.348662 4.544324 21.101952-2.387852 28.728272-7.191323 7.913232-18.186551 9.606941-30.329429 3.729862 6.534201-0.305423 12.23543 0.768185 16.603904-1.175416 4.072307-1.795517 6.737816-6.793348 10.014172-10.393637l-2.2953-2.221258z m-17.918149-13.281272c4.627621 4.96081 7.033984 9.421837 10.48619 10.5047 1.841793 0.58308 8.190889-5.210701 7.792914-7.200579-0.823717-4.146349-4.76645-7.691106-7.422704-11.4765l-10.8564 8.172379zM577.374605 775.237599c4.683153-7.681851 12.133623-7.681851 18.010701-3.683586 3.572523 2.424873 6.876645 9.930875 5.636443 13.55893-1.684454 4.896023-7.200578 10.273319-12.21692 11.86522-11.022993 3.489226-19.676645-0.981056-23.09183-9.495878-3.794649-9.449602-0.157339-21.472162 8.348229-27.562111 8.385249-5.997397 18.371656-6.071439 25.266811-0.185105-19.167607-0.75893-25.609255 3.739118-21.564714 15.11381-0.77744 3.174548-2.943167 6.86739-1.989877 9.394071 1.499349 3.989009 5.090383 7.172813 7.802169 10.69906 2.434129-1.934346 7.033984-4.053796 6.8859-5.775271a30.061027 30.061027 0 0 0-4.710918-13.373825c-0.897758-1.406797-5.479103-0.444252-8.375994-0.555315zM413.195863 224.217498c-2.896891-4.914534-6.349096-9.579176-8.607375-14.771366-8.96833-20.62068-17.520174-41.417209-26.349675-62.084165-1.721475-4.02603-4.303688-7.672596-6.015908-11.698626-1.14765-2.702531-1.453073-5.766016-2.13796-8.662907 3.063485-0.721909 6.645264-2.767317 9.051626-1.823283 2.850615 1.12914 6.747072 4.933044 6.617499 7.404194-1.462328 30.662617 16.354013 54.189443 28.644974 79.780188 1.508604 3.137527 2.212003 6.67303 3.285611 10.023427-1.499349 0.601591-2.998698 1.221692-4.488792 1.832538zM799.694778 373.291685c3.220824 15.733912 7.681851 18.019957 18.963992 9.736515 0.620101-8.885033-17.436876-10.615763-9.403327-23.350977 8.940564 4.312943 8.681417 20.787274 23.878525 15.770933l-4.266666-11.050759c9.579176 0.999566 12.911063 6.728561 14.586261 13.234996 0.17585 0.666377-7.033984 3.24859-12.568618 5.71974 0.38872 1.286479 1.878814 4.433261 2.11945 7.681851 0.17585 2.249024-1.379031 4.618366-2.156471 6.941432-2.091685-0.805206-5.73825-1.277223-5.997397-2.48966-1.582646-7.163557-6.469414-5.636443-11.217354-5.034852-1.823283 0.231381-3.776139 0.694143-5.488359 0.277657-4.470282-1.082863-11.013738-1.34201-12.670426-4.238901-1.888069-3.322632 0.592336-9.134924 1.184671-13.873608l3.035719 0.675633zM357.553347 241.820969c-1.314244-2.730296-3.119017-5.34953-3.868692-8.22791-3.692842-14.179031-6.756327-28.533912-10.819378-42.60188-1.258713-4.340709-5.571656-7.718872-7.357917-12.013305-1.156905-2.776573-0.286913-6.413883-0.333189-9.662473 2.767317 1.277223 7.015474 1.851048 8.01504 3.961244 3.100506 6.552711 5.071873 13.660738 7.311641 20.611424 3.600289 11.208098 7.339407 22.397686 10.430658 33.753869 1.138395 4.20188 0.58308 8.848012 0.805206 13.299783l-4.183369 0.879248zM436.75971 760.512509l16.84454-5.118149c5.247722 13.660738-4.729429 29.191034 6.913666 41.296891h-23.332465c10.014172-6.737816 10.606508-29.154013-0.425741-36.178742zM665.83621 206.021692c5.54389 6.950687 11.744902 13.503398 16.205929 21.083442 1.360521 2.323066-2.045409 7.45047-3.2671 11.291395-3.729863-1.3235-9.72726-1.684454-10.773102-4.155603-3.44295-8.116847-5.099638-17.00188-7.45047-25.590745l5.284743-2.628489zM375.471495 205.956905c-7.163557-13.105423-13.521909-24.443095-19.463774-36.002892-0.620101-1.212437 0.916269-5.071873 1.980622-5.312509 2.526681-0.56457 5.960376-0.56457 7.996529 0.768185 6.561967 4.285177 13.207231 30.199855 9.486623 40.547216z" fill="#B92518" p-id="3355"></path><path d="M215.226232 287.495589c-5.303254 18.010701 6.561967 38.131598-16.881562 47.775561-3.692842-7.108026 5.432827-22.860448-14.567752-19.463775 6.552711-13.540419 13.244252-24.230224 31.449314-28.311786zM762.007432 753.228633c6.913666-7.135792 12.115112-5.377296 16.964859-0.9718 4.627621 4.192625 8.126103 8.838756 1.647433 16.205929l-18.612292-15.234129zM494.095935 798.893999c-4.405495-5.73825-7.913232-9.023861-9.366305-13.040637-0.425741-1.184671 5.9141-6.941432 7.552278-6.330585 4.248156 1.591902 7.607809 5.562401 11.328416 8.579609l-9.514389 10.791613zM493.864554 754.737238c3.294866 4.322198 6.275054 6.895155 7.246855 10.088214 0.425741 1.416052-4.386985 6.099205-4.840492 5.840058-3.544758-2.036153-6.608243-4.905278-9.829067-7.524512l7.422704-8.40376zM526.776195 766.954158l10.8564-8.181635c2.656255 3.785394 6.598988 7.330152 7.422704 11.476501 0.397975 1.989877-5.951121 7.783659-7.792914 7.200578-3.452205-1.073608-5.858568-5.534635-10.48619-10.495444zM577.374605 775.237599c2.896891 0.120318 7.487491-0.851482 8.385249 0.555315 2.526681 3.924223 4.331453 8.764714 4.710918 13.373825 0.148084 1.73073-4.451772 3.840926-6.8859 5.775271-2.711786-3.526247-6.30282-6.719306-7.802169-10.69906-0.962545-2.517426 1.212437-6.219523 1.989877-9.394071l-0.397975 0.38872z" fill="#FFFFFF" p-id="3356"></path></svg>